<?xml version="1.0" encoding="UTF-8" standalone="no"?> <svg xmlns="http://www.w3.org/2000/svg" viewBox="0 0 33.75 47.27"><defs><style>.cls-1{fill:none;stroke:#333;stroke-linecap:round;stroke-linejoin:round;stroke-width:2px;}</style></defs><title>Asset 5</title><g id="Layer_2" data-name="Layer 2"><g id="Layer_2-2" data-name="Layer 2"><rect class="cls-1" x="1" y="24.09" width="31.75" height="5.52" rx="1"/><path class="cls-1" d="M3.19,29.61,6.58,45.45a1,1,0,0,0,1,.82H26.15a1,1,0,0,0,1-.82l3.39-15.84"/><line class="cls-1" x1="13.37" y1="12.64" x2="13.37" y2="23.64"/><path class="cls-1" d="M10.18,24a18.73,18.73,0,0,1-2.9-9.43C7.28,8.23,11.53,2.9,13,1.23a.66.66,0,0,1,1,0c1.49,1.67,5.74,7,5.74,13.31a18.74,18.74,0,0,1-3,9.55"/><line class="cls-1" x1="23.89" y1="15.88" x2="18.08" y2="21.69"/><path class="cls-1" d="M19.82,13.48c3.4-3.41,8.57-4,10.27-4.09a.51.51,0,0,1,.54.55c-.09,1.7-.68,6.86-4.08,10.27A15.11,15.11,0,0,1,18.66,24"/></g></g></svg>