<?xml version="1.0" encoding="UTF-8" standalone="no"?> <svg xmlns="http://www.w3.org/2000/svg" viewBox="0 0 64 64"><g id="line"><path d="M57,20.828a5,5,0,0,0,3.535-8.535,1,1,0,0,0-1.414,0L53.465,17.95a1,1,0,0,0,0,1.414A4.966,4.966,0,0,0,57,20.828Zm2.708-6.294a3.005,3.005,0,0,1-.587,3.416,3.066,3.066,0,0,1-3.415.587Z"/><path d="M18,30a9.01,9.01,0,0,0,9-9,1,1,0,0,0-1-1H10a1,1,0,0,0-1,1A9.01,9.01,0,0,0,18,30Zm1-6.586L22.188,26.6A6.962,6.962,0,0,1,19,27.921Zm-2,4.507a6.952,6.952,0,0,1-3.189-1.32L17,23.326Zm6.6-2.736L20.414,22h4.515A6.96,6.96,0,0,1,23.6,25.185ZM15.5,22l-3.1,3.183A6.951,6.951,0,0,1,11.071,22Z"/><rect x="9" y="44" width="2" height="2"/><rect x="13" y="44" width="2" height="2"/><rect x="17" y="44" width="2" height="2"/><rect x="21" y="44" width="2" height="2"/><rect x="25" y="44" width="2" height="2"/><rect x="29" y="44" width="2" height="2"/><rect x="33" y="44" width="2" height="2"/><rect x="37" y="44" width="2" height="2"/><rect x="41" y="44" width="2" height="2"/><rect x="45" y="44" width="2" height="2"/><rect x="49" y="44" width="2" height="2"/><rect x="53" y="44" width="2" height="2"/><rect x="9" y="56" width="2" height="2"/><rect x="13" y="56" width="2" height="2"/><rect x="17" y="56" width="2" height="2"/><rect x="21" y="56" width="2" height="2"/><rect x="25" y="56" width="2" height="2"/><rect x="29" y="56" width="2" height="2"/><rect x="33" y="56" width="2" height="2"/><rect x="37" y="56" width="2" height="2"/><rect x="41" y="56" width="2" height="2"/><rect x="45" y="56" width="2" height="2"/><rect x="49" y="56" width="2" height="2"/><rect x="53" y="56" width="2" height="2"/><rect x="9" y="48" width="2" height="2"/><rect x="13" y="48" width="2" height="2"/><rect x="17" y="48" width="2" height="2"/><rect x="21" y="48" width="2" height="2"/><rect x="25" y="48" width="2" height="2"/><rect x="29" y="48" width="2" height="2"/><rect x="33" y="48" width="2" height="2"/><rect x="37" y="48" width="2" height="2"/><rect x="41" y="48" width="2" height="2"/><rect x="45" y="48" width="2" height="2"/><rect x="49" y="48" width="2" height="2"/><rect x="53" y="48" width="2" height="2"/><rect x="9" y="52" width="2" height="2"/><rect x="13" y="52" width="2" height="2"/><rect x="17" y="52" width="2" height="2"/><rect x="21" y="52" width="2" height="2"/><rect x="25" y="52" width="2" height="2"/><rect x="29" y="52" width="2" height="2"/><rect x="33" y="52" width="2" height="2"/><rect x="37" y="52" width="2" height="2"/><rect x="41" y="52" width="2" height="2"/><rect x="45" y="52" width="2" height="2"/><rect x="49" y="52" width="2" height="2"/><rect x="53" y="52" width="2" height="2"/><path d="M62,36H55.339a5.025,5.025,0,0,0-1.46-3.536A4.968,4.968,0,0,0,50.343,31H48.414l2.052-2.051A5.243,5.243,0,0,0,46.758,20h-1a5.2,5.2,0,0,0-3.707,1.536L38,25.586V24.243a3.975,3.975,0,0,0-1.172-2.829,4.1,4.1,0,0,0-5.656,0l-1,1A3.975,3.975,0,0,0,29,25.243V36H27V35a3.971,3.971,0,0,0-1.172-2.828,4.093,4.093,0,0,0-5.656,0A3.971,3.971,0,0,0,19,35v1H3a1,1,0,0,0-1,1v4a1,1,0,0,0,1,1H5V56.2A5.809,5.809,0,0,0,10.8,62H53.2A5.809,5.809,0,0,0,59,56.2V42h3a1,1,0,0,0,1-1V37A1,1,0,0,0,62,36ZM31,25.243a1.99,1.99,0,0,1,.586-1.415l1-1a2.049,2.049,0,0,1,2.828,0A1.99,1.99,0,0,1,36,24.243V28a1,1,0,0,0,1.707.707l5.759-5.758A3.217,3.217,0,0,1,45.758,22h1a3.243,3.243,0,0,1,2.293,5.536l-3.758,3.757A1,1,0,0,0,46,33h4.343a2.983,2.983,0,0,1,2.122.878A3.016,3.016,0,0,1,53.339,36H37.414l1-1H42V33H40.414l2.293-2.293-1.414-1.414L36,34.586V32H34v4H31ZM21,35a2.015,2.015,0,0,1,.586-1.414,2.047,2.047,0,0,1,2.828,0A2.015,2.015,0,0,1,25,35v1H21ZM57,56.2A3.806,3.806,0,0,1,53.2,60H10.8A3.806,3.806,0,0,1,7,56.2V42H57ZM61,40H4V38H61Z"/><path d="M11.758,17.9a.993.993,0,0,0,.707-.293l4.242-4.242a1,1,0,0,0,0-1.414L14.745,9.988A3.991,3.991,0,0,0,12.1,3a3.917,3.917,0,0,0-1.606.343A4.928,4.928,0,0,0,7.1,2a5.006,5.006,0,0,0-5,5,4.954,4.954,0,0,0,.772,2.654A3.958,3.958,0,0,0,2.1,12a4,4,0,0,0,6.478,3.136l2.472,2.47A.993.993,0,0,0,11.758,17.9ZM8.564,12.707c-.029,0-.059,0-.088,0a1,1,0,0,0-.733.426,1.994,1.994,0,1,1-2.921-2.657A1,1,0,0,0,4.91,9.034,2.989,2.989,0,1,1,9.5,5.216a1,1,0,0,0,.661.391,1.01,1.01,0,0,0,.744-.193A1.975,1.975,0,0,1,12.1,5,1.994,1.994,0,0,1,12.8,8.865a1,1,0,0,0-.358,1.644l2.148,2.148-2.828,2.828L9.271,13A1,1,0,0,0,8.564,12.707Z"/><circle cx="7" cy="28" r="2"/><path d="M30.7,15.592a.692.692,0,0,1,.6,0A3.773,3.773,0,0,0,33,16c2.8,0,5-3.075,5-7s-2.2-7-5-7a3.773,3.773,0,0,0-1.7.408.7.7,0,0,1-.6,0,3.75,3.75,0,0,0-3.4,0,.7.7,0,0,1-.6,0A3.773,3.773,0,0,0,25,2c-2.8,0-5,3.075-5,7s2.2,7,5,7a3.773,3.773,0,0,0,1.7-.408.692.692,0,0,1,.6,0A3.75,3.75,0,0,0,30.7,15.592ZM25.806,13.8A1.792,1.792,0,0,1,25,14c-1.626,0-3-2.29-3-5s1.374-5,3-5a1.792,1.792,0,0,1,.806.2,2.688,2.688,0,0,0,2.388,0,1.745,1.745,0,0,1,1.612,0,2.688,2.688,0,0,0,2.388,0A1.792,1.792,0,0,1,33,4c1.626,0,3,2.29,3,5s-1.374,5-3,5a1.792,1.792,0,0,1-.806-.2,2.686,2.686,0,0,0-2.388,0,1.745,1.745,0,0,1-1.612,0A2.688,2.688,0,0,0,25.806,13.8Z"/><rect x="31" y="6" width="2" height="6"/><rect x="25" y="6" width="2" height="6"/><path d="M56,5H54.414l1.293-1.293L54.293,2.293,53,3.586V2H51V5.347l-4.039-.269A6.468,6.468,0,1,0,52.985,11.1L52.712,7H56Zm-6.2,9.584A4.428,4.428,0,0,1,46.531,16a4.474,4.474,0,0,1-4.469-4.469,4.474,4.474,0,0,1,4.459-4.469c.1,0,.2,0,.307.011l3.9.26.26,3.9A4.424,4.424,0,0,1,49.8,14.584Z"/></g></svg>