<?xml version="1.0" encoding="UTF-8" standalone="no"?> <svg width="512" height="512" viewBox="0 0 512 512" fill="none" xmlns="http://www.w3.org/2000/svg">
<path d="M280 136H296V120H120V136H136H280Z" fill="black"/>
<path d="M278.676 176.566C276.81 176.253 275.115 175.288 273.893 173.844C272.67 172.399 272 170.568 272 168.676V152H144V168.676C144 170.568 143.329 172.399 142.107 173.844C140.885 175.288 139.19 176.253 137.324 176.566C129.353 177.887 121.973 181.601 116.164 187.216C110.355 192.83 106.391 200.079 104.8 208H311.2C309.608 200.079 305.645 192.83 299.835 187.216C294.026 181.601 286.646 177.887 278.676 176.566V176.566Z" fill="black"/>
<path d="M159.121 368.002H261.983C264.82 356.978 264.665 345.396 261.535 334.452C258.405 323.507 252.412 313.595 244.175 305.739C235.937 297.882 225.754 292.364 214.673 289.755C203.593 287.146 192.017 287.539 181.14 290.894C170.262 294.249 160.476 300.444 152.79 308.842C145.105 317.239 139.798 327.534 137.418 338.666C135.037 349.798 135.668 361.363 139.247 372.169C142.825 382.975 149.221 392.632 157.775 400.143C154.29 392.812 152.057 384.949 151.17 376.881C151.046 375.763 151.16 374.631 151.503 373.56C151.846 372.489 152.411 371.503 153.162 370.665C153.912 369.827 154.83 369.157 155.857 368.698C156.884 368.239 157.996 368.002 159.121 368.002V368.002Z" fill="black"/>
<path d="M136 88H120V104H136V88Z" fill="black"/>
<path d="M174.176 274.418L185.983 272.057L180.542 264.802C178.129 261.571 174.872 259.068 171.129 257.569C167.386 256.069 163.302 255.631 159.326 256.302L144.649 258.748L154.305 268.403C156.864 270.967 160.017 272.859 163.484 273.908C166.952 274.958 170.625 275.133 174.176 274.418V274.418Z" fill="black"/>
<path d="M296 88H280V104H296V88Z" fill="black"/>
<path d="M168 88H152V104H168V88Z" fill="black"/>
<path d="M264 88H248V104H264V88Z" fill="black"/>
<path d="M232 88H216V104H232V88Z" fill="black"/>
<path d="M200 88H184V104H200V88Z" fill="black"/>
<path d="M372.869 430.445L341.619 461.695L354.278 474.354C358.445 478.388 364.03 480.622 369.829 480.575C375.628 480.528 381.176 478.203 385.276 474.103C389.377 470.002 391.702 464.454 391.749 458.655C391.796 452.856 389.562 447.271 385.528 443.104L372.869 430.445Z" fill="black"/>
<path d="M104 468C104.003 471.182 105.269 474.232 107.519 476.481C109.768 478.731 112.818 479.997 116 480H300C303.182 479.997 306.232 478.731 308.481 476.481C310.731 474.232 311.997 471.182 312 468V464H104V468Z" fill="black"/>
<path d="M348.9 406.471C344.733 402.438 339.148 400.204 333.349 400.251C327.55 400.298 322.002 402.622 317.902 406.723C313.801 410.824 311.477 416.372 311.429 422.171C311.382 427.97 313.616 433.555 317.65 437.721L330.309 450.38L361.559 419.13L348.9 406.471Z" fill="black"/>
<path d="M408 458.729C408.017 466.133 405.862 473.38 401.8 479.57C405.004 480.212 408.311 480.134 411.481 479.342C414.652 478.55 417.607 477.064 420.132 474.99C422.658 472.916 424.692 470.308 426.086 467.352C427.48 464.396 428.2 461.168 428.194 457.9V440H403.084C406.318 445.711 408.012 452.165 408 458.729V458.729Z" fill="black"/>
<path d="M255.529 415.82C266.678 408.264 274.769 396.983 278.351 384H237.351L255.529 415.82Z" fill="black"/>
<path d="M295.174 422.1C295.16 417.095 296.139 412.137 298.055 407.513C299.97 402.889 302.783 398.691 306.332 395.162C308.068 393.425 309.966 391.858 312 390.482V224H104V448H305.346C298.787 440.973 295.15 431.712 295.174 422.1V422.1ZM223.561 441.634C209.889 441.651 196.489 437.812 184.9 430.558C169.546 427.614 155.392 420.233 144.189 409.329C132.986 398.424 125.226 384.474 121.868 369.205C118.511 353.936 119.705 338.018 125.301 323.42C130.896 308.822 140.65 296.185 153.353 287.072C149.512 285.218 146.01 282.73 142.994 279.714L122.347 259.067C121.308 258.028 120.575 256.722 120.229 255.294C119.884 253.865 119.938 252.369 120.387 250.969C120.835 249.57 121.661 248.321 122.772 247.359C123.884 246.398 125.239 245.762 126.689 245.52L156.699 240.52C163.207 239.422 169.889 240.046 176.081 242.329C182.274 244.611 187.762 248.474 192 253.533V248C192 245.878 192.843 243.843 194.343 242.343C195.843 240.843 197.878 240 200 240C202.122 240 204.157 240.843 205.657 242.343C207.157 243.843 208 245.878 208 248V272.4C219.131 273.519 229.904 276.961 239.622 282.502C249.341 288.043 257.789 295.561 264.422 304.57C271.055 313.579 275.724 323.879 278.13 334.804C280.535 345.73 280.622 357.039 278.385 368H288C289.125 368 290.237 368.237 291.264 368.696C292.29 369.155 293.209 369.825 293.959 370.663C294.709 371.501 295.275 372.488 295.618 373.559C295.961 374.63 296.075 375.761 295.951 376.879C293.989 394.697 285.514 411.163 272.153 423.114C258.792 435.065 241.487 441.66 223.561 441.631V441.634Z" fill="black"/>
<path d="M206 422.863C217.419 426.554 229.709 426.554 241.128 422.863L223.564 392.125L206 422.863Z" fill="black"/>
<path d="M406.1 384C400.241 384.006 394.623 386.336 390.479 390.479C386.336 394.623 384.006 400.241 384 406.1V418.952L389.051 424H428.194V406.1C428.188 400.242 425.859 394.625 421.717 390.481C417.575 386.338 411.958 384.007 406.1 384V384Z" fill="black"/>
<path d="M168.771 384C172.272 396.701 180.092 407.785 190.884 415.341C191.184 415.384 191.491 415.424 191.796 415.463L209.775 384H168.771Z" fill="black"/>
</svg>
